<svg xmlns="http://www.w3.org/2000/svg" width="66" height="66"><defs><filter filterUnits="userSpaceOnUse" id="a" x="0" y="0" width="66" height="66"><feOffset in="SourceAlpha" dy="3"/><feGaussianBlur result="blurOut" stdDeviation="3.162"/><feFlood flood-color="#FE3E57" result="floodOut"/><feComposite operator="atop" in="floodOut" in2="blurOut"/><feComponentTransfer><feFuncA type="linear" slope=".5"/></feComponentTransfer><feMerge><feMergeNode/><feMergeNode in="SourceGraphic"/></feMerge></filter></defs><g filter="url(#a)"><path fill-rule="evenodd" fill="#FE3E57" d="M32.499 52.998c-12.98 0-23.501-10.523-23.501-23.501C8.998 16.519 19.519 5.1 32.499 5.1c12.979 0 23.503 11.419 23.503 24.397 0 12.978-10.524 23.501-23.503 23.501zm0-42.196c-10.326 0-18.699 8.369-18.699 18.695 0 10.329 8.373 18.698 18.699 18.698 10.329 0 18.7-8.369 18.7-18.698 0-10.326-8.371-18.695-18.7-18.695zm-.018 24.302a5.606 5.606 0 11.038-11.212 5.606 5.606 0 01-.038 11.212z"/></g></svg>