<svg xmlns="http://www.w3.org/2000/svg" width="126" height="53"><path fill-rule="evenodd" fill="#FE3E57" d="M124.259 36.491a1.74 1.74 0 01-1.741-1.738c0-.959.78-1.737 1.741-1.737.961 0 .841.778.841 1.737 0 .96.12 1.738-.841 1.738zm0-16.508a1.74 1.74 0 01-1.741-1.738c0-.959.78-1.737 1.741-1.737.961 0 .841.778.841 1.737 0 .96.12 1.738-.841 1.738zm0-16.508a1.74 1.74 0 01-1.741-1.738c0-.959.78-1.738 1.741-1.738.961 0 .841.779.841 1.738 0 .96.12 1.738-.841 1.738zm-13.71 49.524a1.74 1.74 0 01-1.741-1.737 1.74 1.74 0 013.482 0c0 .959-.779 1.737-1.741 1.737zm0-16.508a1.74 1.74 0 01-1.741-1.738c0-.959.78-1.737 1.741-1.737.962 0 1.741.778 1.741 1.737a1.74 1.74 0 01-1.741 1.738zm0-16.508a1.74 1.74 0 01-1.741-1.738c0-.959.78-1.737 1.741-1.737.962 0 1.741.778 1.741 1.737a1.74 1.74 0 01-1.741 1.738zm0-16.508a1.74 1.74 0 01-1.741-1.738 1.74 1.74 0 013.482 0 1.74 1.74 0 01-1.741 1.738zM97.057 52.999a1.739 1.739 0 110-3.476 1.74 1.74 0 011.741 1.739 1.74 1.74 0 01-1.741 1.737zm0-16.508a1.74 1.74 0 01-1.741-1.738c0-.959.779-1.737 1.741-1.737a1.74 1.74 0 011.741 1.737c0 .96-.78 1.738-1.741 1.738zm0-16.508a1.74 1.74 0 01-1.741-1.738c0-.959.779-1.737 1.741-1.737a1.74 1.74 0 011.741 1.737c0 .96-.78 1.738-1.741 1.738zm0-16.508a1.74 1.74 0 110-3.476 1.74 1.74 0 011.741 1.738c0 .96-.78 1.738-1.741 1.738zm-13.71 49.524a1.74 1.74 0 01-1.741-1.737 1.74 1.74 0 013.482 0c0 .959-.779 1.737-1.741 1.737zm0-16.508a1.74 1.74 0 01-1.741-1.738c0-.959.78-1.737 1.741-1.737.962 0 1.741.778 1.741 1.737a1.74 1.74 0 01-1.741 1.738zm0-16.508a1.74 1.74 0 01-1.741-1.738c0-.959.78-1.737 1.741-1.737.962 0 1.741.778 1.741 1.737a1.74 1.74 0 01-1.741 1.738zm0-16.508a1.74 1.74 0 01-1.741-1.738 1.74 1.74 0 013.482 0 1.74 1.74 0 01-1.741 1.738zM69.855 52.999a1.739 1.739 0 110-3.476 1.74 1.74 0 011.741 1.739 1.74 1.74 0 01-1.741 1.737zm0-16.508a1.74 1.74 0 01-1.741-1.738c0-.959.779-1.737 1.741-1.737a1.74 1.74 0 011.741 1.737c0 .96-.78 1.738-1.741 1.738zm0-16.508a1.74 1.74 0 01-1.741-1.738c0-.959.779-1.737 1.741-1.737a1.74 1.74 0 011.741 1.737c0 .96-.78 1.738-1.741 1.738zm0-16.508a1.74 1.74 0 110-3.476 1.74 1.74 0 011.741 1.738c0 .96-.78 1.738-1.741 1.738zm-13.71 49.524a1.739 1.739 0 110-3.476 1.74 1.74 0 011.741 1.739 1.74 1.74 0 01-1.741 1.737zm0-16.508a1.74 1.74 0 01-1.741-1.738c0-.959.779-1.737 1.741-1.737a1.74 1.74 0 011.741 1.737c0 .96-.78 1.738-1.741 1.738zm0-16.508a1.74 1.74 0 01-1.741-1.738c0-.959.779-1.737 1.741-1.737a1.74 1.74 0 011.741 1.737c0 .96-.78 1.738-1.741 1.738zm0-16.508a1.74 1.74 0 110-3.476 1.74 1.74 0 011.741 1.738c0 .96-.78 1.738-1.741 1.738zM42.653 52.999a1.739 1.739 0 110-3.476 1.74 1.74 0 011.741 1.739 1.74 1.74 0 01-1.741 1.737zm0-16.508a1.74 1.74 0 01-1.741-1.738c0-.959.779-1.737 1.741-1.737a1.74 1.74 0 011.741 1.737c0 .96-.78 1.738-1.741 1.738zm0-16.508a1.74 1.74 0 01-1.741-1.738c0-.959.779-1.737 1.741-1.737a1.74 1.74 0 011.741 1.737c0 .96-.78 1.738-1.741 1.738zm0-16.508a1.74 1.74 0 110-3.476 1.74 1.74 0 011.741 1.738c0 .96-.78 1.738-1.741 1.738zm-13.71 49.524a1.739 1.739 0 110-3.476 1.74 1.74 0 011.741 1.739 1.74 1.74 0 01-1.741 1.737zm0-16.508a1.74 1.74 0 01-1.741-1.738c0-.959.779-1.737 1.741-1.737a1.74 1.74 0 011.741 1.737c0 .96-.78 1.738-1.741 1.738zm0-16.508a1.74 1.74 0 01-1.741-1.738c0-.959.779-1.737 1.741-1.737a1.74 1.74 0 011.741 1.737c0 .96-.78 1.738-1.741 1.738zm0-16.508a1.74 1.74 0 110-3.476 1.74 1.74 0 011.741 1.738c0 .96-.78 1.738-1.741 1.738zM15.451 52.999a1.739 1.739 0 110-3.476 1.74 1.74 0 011.741 1.739 1.74 1.74 0 01-1.741 1.737zm0-16.508a1.74 1.74 0 01-1.741-1.738c0-.959.779-1.737 1.741-1.737a1.74 1.74 0 011.741 1.737c0 .96-.78 1.738-1.741 1.738zm0-16.508a1.74 1.74 0 01-1.741-1.738c0-.959.779-1.737 1.741-1.737a1.74 1.74 0 011.741 1.737c0 .96-.78 1.738-1.741 1.738zm0-16.508a1.74 1.74 0 110-3.476 1.74 1.74 0 011.741 1.738c0 .96-.78 1.738-1.741 1.738zM1.741 52.999a1.739 1.739 0 110-3.476 1.74 1.74 0 011.741 1.739 1.74 1.74 0 01-1.741 1.737zm0-16.508A1.74 1.74 0 010 34.753c0-.959.779-1.737 1.741-1.737a1.74 1.74 0 011.741 1.737c0 .96-.78 1.738-1.741 1.738zm0-16.508A1.74 1.74 0 010 18.245c0-.959.779-1.737 1.741-1.737a1.74 1.74 0 011.741 1.737c0 .96-.78 1.738-1.741 1.738zm0-16.508a1.74 1.74 0 110-3.476 1.74 1.74 0 011.741 1.738c0 .96-.78 1.738-1.741 1.738zm122.518 46.048c.961 0 .841.779.841 1.739 0 .959.12 1.737-.841 1.737a1.74 1.74 0 01-1.741-1.737c0-.96.78-1.739 1.741-1.739z"/></svg>