<svg xmlns="http://www.w3.org/2000/svg" width="65" height="52"><path fill-rule="evenodd" fill="#FE3E57" d="M63.25 39.875c-.967 0-1.75-.777-1.75-1.735 0-.957.783-1.734 1.75-1.734.966 0 .85.777.85 1.734 0 .958.116 1.735-.85 1.735zm0-12.156c-.967 0-1.75-.77-1.75-2.619 0-.049.783-.819 1.75-.819.966 0 .85.77.85.819 0 1.849.116 2.619-.85 2.619zm0-12.125c-.967 0-1.75-.777-1.75-1.735 0-.958.783-1.734 1.75-1.734.966 0 .85.776.85 1.734s.116 1.735-.85 1.735zm0-12.126c-.967 0-1.75-.776-1.75-1.734S62.283 0 63.25 0c.966 0 .85.776.85 1.734s.116 1.734-.85 1.734zM50.953 51.1c-.975 0-1.766.123-1.766-.835 0-.957.791-1.734 1.766-1.734s1.766.777 1.766 1.734c0 .958-.791.835-1.766.835zm0-11.225c-.975 0-1.766-.777-1.766-1.735 0-.957.791-1.734 1.766-1.734s1.766.777 1.766 1.734c0 .958-.791 1.735-1.766 1.735zm0-12.156c-.975 0-1.766-.77-1.766-2.619 0-.049.791-.819 1.766-.819s1.766.77 1.766.819c0 1.849-.791 2.619-1.766 2.619zm0-12.125c-.975 0-1.766-.777-1.766-1.735 0-.958.791-1.734 1.766-1.734s1.766.776 1.766 1.734-.791 1.735-1.766 1.735zm0-12.126c-.975 0-1.766-.776-1.766-1.734S49.978 0 50.953 0s1.766.776 1.766 1.734-.791 1.734-1.766 1.734zM38.656 51.1c-.966 0-1.75.123-1.75-.835 0-.957.784-1.734 1.75-1.734.967 0 1.75.777 1.75 1.734 0 .958-.783.835-1.75.835zm0-11.225c-.966 0-1.75-.777-1.75-1.735 0-.957.784-1.734 1.75-1.734.967 0 1.75.777 1.75 1.734 0 .958-.783 1.735-1.75 1.735zm0-12.156c-.966 0-1.75-.77-1.75-2.619 0-.049.784-.819 1.75-.819.967 0 1.75.77 1.75.819 0 1.849-.783 2.619-1.75 2.619zm0-12.125c-.966 0-1.75-.777-1.75-1.735 0-.958.784-1.734 1.75-1.734.967 0 1.75.776 1.75 1.734s-.783 1.735-1.75 1.735zm0-12.126c-.966 0-1.75-.776-1.75-1.734S37.69 0 38.656 0c.967 0 1.75.776 1.75 1.734s-.783 1.734-1.75 1.734zM26.344 51.1c-.967 0-1.75.123-1.75-.835 0-.957.783-1.734 1.75-1.734.966 0 1.75.777 1.75 1.734 0 .958-.784.835-1.75.835zm0-11.225c-.967 0-1.75-.777-1.75-1.735 0-.957.783-1.734 1.75-1.734.966 0 1.75.777 1.75 1.734 0 .958-.784 1.735-1.75 1.735zm0-12.156c-.967 0-1.75-.77-1.75-2.619 0-.049.783-.819 1.75-.819.966 0 1.75.77 1.75.819 0 1.849-.784 2.619-1.75 2.619zm0-12.125c-.967 0-1.75-.777-1.75-1.735 0-.958.783-1.734 1.75-1.734.966 0 1.75.776 1.75 1.734s-.784 1.735-1.75 1.735zm0-12.126c-.967 0-1.75-.776-1.75-1.734S25.377 0 26.344 0c.966 0 1.75.776 1.75 1.734s-.784 1.734-1.75 1.734zM14.047 51.1c-.975 0-1.766.123-1.766-.835 0-.957.791-1.734 1.766-1.734s1.765.777 1.765 1.734c0 .958-.79.835-1.765.835zm0-11.225c-.975 0-1.766-.777-1.766-1.735 0-.957.791-1.734 1.766-1.734s1.765.777 1.765 1.734c0 .958-.79 1.735-1.765 1.735zm0-12.156c-.975 0-1.766-.77-1.766-2.619 0-.049.791-.819 1.766-.819s1.765.77 1.765.819c0 1.849-.79 2.619-1.765 2.619zm0-12.125c-.975 0-1.766-.777-1.766-1.735 0-.958.791-1.734 1.766-1.734s1.765.776 1.765 1.734-.79 1.735-1.765 1.735zm0-12.126c-.975 0-1.766-.776-1.766-1.734S13.072 0 14.047 0s1.765.776 1.765 1.734-.79 1.734-1.765 1.734zM1.75 51.1c-.967 0-1.75.123-1.75-.835 0-.957.783-1.734 1.75-1.734.966 0 1.75.777 1.75 1.734 0 .958-.784.835-1.75.835zm0-11.225c-.967 0-1.75-.777-1.75-1.735 0-.957.783-1.734 1.75-1.734.966 0 1.75.777 1.75 1.734 0 .958-.784 1.735-1.75 1.735zm0-12.156c-.967 0-1.75-.77-1.75-2.619 0-.049.783-.819 1.75-.819.966 0 1.75.77 1.75.819 0 1.849-.784 2.619-1.75 2.619zm0-12.125c-.967 0-1.75-.777-1.75-1.735 0-.958.783-1.734 1.75-1.734.966 0 1.75.776 1.75 1.734s-.784 1.735-1.75 1.735zm0-12.126C.783 3.468 0 2.692 0 1.734S.783 0 1.75 0C2.716 0 3.5.776 3.5 1.734s-.784 1.734-1.75 1.734zm61.5 45.063c.966 0 .85.777.85 1.734 0 .958.116.835-.85.835-.967 0-1.75.123-1.75-.835 0-.957.783-1.734 1.75-1.734z"/></svg>