<svg xmlns="http://www.w3.org/2000/svg" width="1627" height="369"><defs><filter filterUnits="userSpaceOnUse" id="a" x="1561" y="303" width="66" height="66"><feOffset in="SourceAlpha" dy="3"/><feGaussianBlur result="blurOut" stdDeviation="3.162"/><feFlood flood-color="#FE3E57" result="floodOut"/><feComposite operator="atop" in="floodOut" in2="blurOut"/><feComponentTransfer><feFuncA type="linear" slope=".5"/></feComponentTransfer><feMerge><feMergeNode/><feMergeNode in="SourceGraphic"/></feMerge></filter></defs><g filter="url(#a)"><path fill-rule="evenodd" fill="#FE3E57" d="M1593.499 355.998c-12.98 0-23.501-10.523-23.501-23.501 0-12.978 10.521-24.397 23.501-24.397 12.979 0 23.503 11.419 23.503 24.397 0 12.978-10.524 23.501-23.503 23.501zm0-42.196c-10.326 0-18.699 8.369-18.699 18.695 0 10.329 8.373 18.698 18.699 18.698 10.329 0 18.7-8.369 18.7-18.698 0-10.326-8.371-18.695-18.7-18.695zm-.018 24.302a5.606 5.606 0 11.038-11.212 5.606 5.606 0 01-.038 11.212z"/></g><path fill-rule="evenodd" fill="#34C3FF" d="M103.009 54.656a2.16 2.16 0 01-2.163-2.157 2.16 2.16 0 014.323 0 2.16 2.16 0 01-2.16 2.157zm-7.204 7.192a2.159 2.159 0 01-2.161-2.157 2.16 2.16 0 012.161-2.158 2.159 2.159 0 110 4.315zm0-14.383a2.16 2.16 0 01-2.161-2.159 2.16 2.16 0 012.161-2.157 2.16 2.16 0 110 4.316zM88.602 69.04a2.16 2.16 0 01-2.162-2.157 2.161 2.161 0 014.323 0 2.16 2.16 0 01-2.161 2.157zm2.16-16.541a2.16 2.16 0 01-2.161 2.157 2.159 2.159 0 01-2.161-2.157 2.16 2.16 0 014.322 0zm-2.16-12.227a2.16 2.16 0 01-2.162-2.156 2.16 2.16 0 012.162-2.158 2.16 2.16 0 012.161 2.158 2.16 2.16 0 01-2.161 2.156zm-7.204 35.96a2.16 2.16 0 110-4.316 2.16 2.16 0 012.161 2.158 2.16 2.16 0 01-2.161 2.158zm0-14.384a2.159 2.159 0 01-2.161-2.157 2.16 2.16 0 012.161-2.158 2.16 2.16 0 012.161 2.158 2.16 2.16 0 01-2.161 2.157zm0-14.383a2.16 2.16 0 01-2.161-2.159 2.16 2.16 0 012.161-2.157 2.16 2.16 0 012.161 2.157 2.16 2.16 0 01-2.161 2.159zm0-14.384a2.16 2.16 0 01-2.161-2.157 2.16 2.16 0 012.161-2.159 2.16 2.16 0 012.161 2.159 2.16 2.16 0 01-2.161 2.157zm-7.203 50.344a2.16 2.16 0 11-.003-4.315 2.16 2.16 0 01.003 4.315zm0-14.385a2.16 2.16 0 01-2.161-2.157 2.16 2.16 0 014.321 0 2.16 2.16 0 01-2.16 2.157zm0-14.384a2.159 2.159 0 01-2.161-2.157 2.16 2.16 0 014.321 0 2.159 2.159 0 01-2.16 2.157zm0-14.384a2.16 2.16 0 01-2.161-2.156 2.16 2.16 0 012.161-2.158c1.192 0 2.16.965 2.16 2.158a2.16 2.16 0 01-2.16 2.156zm0-14.383a2.16 2.16 0 01-2.161-2.158 2.16 2.16 0 014.321 0 2.16 2.16 0 01-2.16 2.158zm-7.203 64.727a2.16 2.16 0 01-2.163-2.158 2.16 2.16 0 012.163-2.157 2.158 2.158 0 110 4.315zm0-14.384a2.16 2.16 0 01-2.163-2.158 2.16 2.16 0 014.323 0 2.159 2.159 0 01-2.16 2.158zm0-14.384a2.16 2.16 0 01-2.163-2.157 2.16 2.16 0 012.163-2.158 2.159 2.159 0 110 4.315zm0-14.383a2.16 2.16 0 01-2.163-2.159 2.16 2.16 0 012.163-2.157 2.16 2.16 0 110 4.316zm0-14.384a2.16 2.16 0 01-2.163-2.157 2.16 2.16 0 012.163-2.159 2.16 2.16 0 110 4.316zm0-14.384a2.16 2.16 0 01-2.163-2.158 2.16 2.16 0 014.323 0 2.159 2.159 0 01-2.16 2.158zm-7.204 64.728a2.161 2.161 0 01-2.163-2.159 2.16 2.16 0 012.163-2.158 2.16 2.16 0 110 4.317zm0-18.7a2.16 2.16 0 012.16 2.158 2.16 2.16 0 01-2.16 2.157 2.16 2.16 0 01-2.163-2.157 2.16 2.16 0 012.163-2.158zm0-10.069a2.16 2.16 0 01-2.163-2.157 2.16 2.16 0 012.163-2.158 2.16 2.16 0 012.161 2.158 2.159 2.159 0 01-2.161 2.157zm0-18.698a2.16 2.16 0 012.16 2.158 2.16 2.16 0 01-2.16 2.156 2.16 2.16 0 01-2.163-2.156 2.16 2.16 0 012.163-2.158zm0-10.069a2.16 2.16 0 01-2.163-2.158 2.16 2.16 0 012.163-2.158 2.16 2.16 0 012.161 2.158 2.16 2.16 0 01-2.161 2.158zm0-14.384a2.16 2.16 0 01-2.163-2.158 2.16 2.16 0 012.163-2.157 2.16 2.16 0 012.16 2.157 2.16 2.16 0 01-2.16 2.158zm-7.203 93.494h-.001a2.16 2.16 0 01-2.162-2.157 2.16 2.16 0 012.162-2.158h.001a2.16 2.16 0 012.161 2.158 2.16 2.16 0 01-2.161 2.157zm-.001-18.698c1.193 0 2.161.965 2.161 2.157a2.16 2.16 0 01-2.161 2.158 2.16 2.16 0 01-2.162-2.158 2.16 2.16 0 012.162-2.157zm.001-10.069h-.001a2.16 2.16 0 01-2.162-2.158 2.16 2.16 0 012.162-2.158h.001c1.192 0 2.161.967 2.161 2.158a2.16 2.16 0 01-2.161 2.158zm-.001-18.699a2.16 2.16 0 012.161 2.158 2.16 2.16 0 01-2.161 2.157 2.16 2.16 0 01-2.162-2.157 2.16 2.16 0 012.162-2.158zm.001-10.068h-.001a2.16 2.16 0 01-2.162-2.159 2.16 2.16 0 012.162-2.157h.001a2.16 2.16 0 012.161 2.157 2.16 2.16 0 01-2.161 2.159zm-.001-18.7a2.16 2.16 0 012.161 2.159 2.16 2.16 0 01-2.161 2.157 2.16 2.16 0 01-2.162-2.157 2.16 2.16 0 012.162-2.159zm.001-10.068h-.001a2.16 2.16 0 01-2.162-2.158 2.16 2.16 0 012.162-2.158h.001c1.192 0 2.161.967 2.161 2.158a2.16 2.16 0 01-2.161 2.158zm-.001-14.384a2.16 2.16 0 01-2.162-2.158 2.16 2.16 0 012.162-2.158 2.16 2.16 0 012.161 2.158 2.16 2.16 0 01-2.161 2.158zM45.38 97.807a2.16 2.16 0 01-2.161-2.157c0-1.192.968-2.157 2.161-2.157a2.16 2.16 0 012.162 2.157 2.16 2.16 0 01-2.162 2.157zm0-14.382a2.16 2.16 0 110-4.317 2.16 2.16 0 012.162 2.158 2.161 2.161 0 01-2.162 2.159zm0-14.385a2.16 2.16 0 01-2.161-2.157 2.16 2.16 0 012.161-2.158 2.16 2.16 0 012.162 2.158 2.16 2.16 0 01-2.162 2.157zm0-14.384a2.159 2.159 0 01-2.161-2.157 2.16 2.16 0 012.161-2.158 2.16 2.16 0 012.162 2.158 2.16 2.16 0 01-2.162 2.157zm0-14.384a2.16 2.16 0 01-2.161-2.156 2.16 2.16 0 012.161-2.158 2.16 2.16 0 012.162 2.158 2.16 2.16 0 01-2.162 2.156zm0-14.383a2.16 2.16 0 01-2.161-2.158 2.16 2.16 0 012.161-2.158 2.16 2.16 0 012.162 2.158 2.16 2.16 0 01-2.162 2.158zm0-14.384a2.16 2.16 0 01-2.161-2.158c0-1.192.968-2.157 2.161-2.157a2.16 2.16 0 012.162 2.157 2.16 2.16 0 01-2.162 2.158zm-7.201 79.111h-.001a2.161 2.161 0 01-1.992-2.998 2.162 2.162 0 011.992-1.317h.001a2.157 2.157 0 110 4.315zm0-14.384h-.001a2.162 2.162 0 01-1.992-1.317 2.166 2.166 0 010-1.681 2.163 2.163 0 011.992-1.318h.001a2.158 2.158 0 110 4.316zm0-14.384h-.001a2.162 2.162 0 01-1.992-1.317 2.161 2.161 0 011.992-2.998h.001a2.158 2.158 0 110 4.315zm0-14.383h-.001a2.162 2.162 0 01-2.161-2.159 2.152 2.152 0 012.161-2.157h.001a2.157 2.157 0 011.988 2.997 2.157 2.157 0 01-1.988 1.319zm0-14.384h-.001a2.163 2.163 0 01-1.992-1.318 2.16 2.16 0 011.992-2.998h.001a2.157 2.157 0 110 4.316zm0-14.384h-.001a2.154 2.154 0 01-2.161-2.158 2.157 2.157 0 012.161-2.158h.001a2.158 2.158 0 110 4.316zm-6.364 64.557a2.14 2.14 0 01-.84.171h-.001a2.161 2.161 0 01-1.991-2.999 2.162 2.162 0 011.991-1.318h.001a2.158 2.158 0 01.84 4.146zm-.84-14.214a2.16 2.16 0 01-2.162-2.157 2.16 2.16 0 012.162-2.158 2.16 2.16 0 012.16 2.158 2.16 2.16 0 01-2.16 2.157zm.84-14.553a2.157 2.157 0 01-.84.169h-.001a2.161 2.161 0 01-2.161-2.157 2.16 2.16 0 012.161-2.158h.001a2.158 2.158 0 01.84 4.146zm-.84-14.215a2.159 2.159 0 01-2.162-2.156c0-1.193.967-2.158 2.162-2.158a2.16 2.16 0 012.16 2.158 2.16 2.16 0 01-2.16 2.156zm.84-14.553a2.14 2.14 0 01-.84.17h-.001a2.16 2.16 0 01-1.991-2.998 2.162 2.162 0 011.991-1.318h.001a2.158 2.158 0 01.84 4.146zM23.77 76.232a2.16 2.16 0 110-4.316c1.193 0 2.162.967 2.162 2.158a2.16 2.16 0 01-2.162 2.158zm0-14.384a2.159 2.159 0 01-2.161-2.157 2.16 2.16 0 012.161-2.158 2.16 2.16 0 012.162 2.158 2.16 2.16 0 01-2.162 2.157zm0-14.383a2.16 2.16 0 01-2.161-2.159 2.161 2.161 0 014.323 0 2.16 2.16 0 01-2.162 2.159zm0-14.384a2.16 2.16 0 01-2.161-2.157 2.16 2.16 0 014.323 0c0 1.19-.969 2.157-2.162 2.157zM16.566 69.04a2.158 2.158 0 110-4.315 2.16 2.16 0 012.162 2.158 2.16 2.16 0 01-2.162 2.157zm0-14.384a2.158 2.158 0 110-4.315 2.16 2.16 0 012.162 2.158 2.16 2.16 0 01-2.162 2.157zm0-14.384a2.158 2.158 0 110-4.314 2.16 2.16 0 012.162 2.158 2.16 2.16 0 01-2.162 2.156zM9.364 61.848a2.16 2.16 0 01-2.162-2.157 2.16 2.16 0 012.162-2.158 2.159 2.159 0 110 4.315zm0-14.383a2.16 2.16 0 01-2.162-2.159 2.16 2.16 0 014.322 0 2.16 2.16 0 01-2.16 2.159zM2.16 54.656a2.158 2.158 0 110-4.315 2.16 2.16 0 012.162 2.158 2.16 2.16 0 01-2.162 2.157zm57.628 38.837a2.16 2.16 0 012.16 2.157 2.16 2.16 0 01-2.16 2.157 2.16 2.16 0 01-2.163-2.157 2.16 2.16 0 012.163-2.157z"/></svg>