<svg xmlns="http://www.w3.org/2000/svg" width="20" height="20"><path fill-rule="evenodd" fill="#8D8D8D" d="M9.1 10.832c.44 0 .067-.373.067-.833V4.166c0-.46.373-.834-.067-.834 1.36 0 1.733.374 1.733.834v5h3.334c.46 0-.067.373-.067.833 0 .46.527.833.067.833H9.1zm0 9.167c-4.614 0-9.1-4.486-9.1-10s4.486-10 9.1-10c3.152 0 5.358.767 7.11 2.16a.832.832 0 11-1.037 1.304c-1.48-1.175-3.269-1.797-6.073-1.797-3.695 0-7.433 3.738-7.433 8.333 0 4.595 3.738 8.333 7.433 8.333 5.495 0 9.233-3.738 9.233-8.333a8.237 8.237 0 00-.825-3.624.834.834 0 011.5-.727c.658 1.359.092 2.823.092 4.351 0 5.514-3.586 10-10 10z"/></svg>