<svg xmlns="http://www.w3.org/2000/svg" width="130" height="130"><path fill-rule="evenodd" opacity=".2" fill="#FE3E57" d="M64.1 0c36.798 0 65 29.101 65 64.1 0 36.798-28.202 65-65 65-34.999 0-64.1-28.202-64.1-65C0 29.101 29.101 0 64.1 0z"/><path fill-rule="evenodd" opacity=".6" fill="#FE3E57" d="M64.1 9.1c31.276 0 55 25.524 55 55 0 31.276-23.724 55-55 55-29.476 0-55-23.724-55-55 0-29.476 25.524-55 55-55z"/><path fill-rule="evenodd" fill="#FE3E57" d="M64.1 19.1c25.753 0 45 21.047 45 45 0 25.753-19.247 45-45 45-23.953 0-45-19.247-45-45 0-23.953 21.047-45 45-45z"/><path fill-rule="evenodd" fill="#FFF" d="M71.816 63.142l-11.824-7.606c-.546-.351-1.096-.537-1.554-.537-.884 0-1.431.667-1.431 1.783v16.437c0 1.115.547 1.78 1.429 1.78.458 0 .999-.186 1.546-.539l11.83-7.605c.76-.489 1.182-1.149 1.182-1.857 0-.707-.417-1.367-1.178-1.856"/></svg>