<svg xmlns="http://www.w3.org/2000/svg" width="16" height="16"><path d="M14.355 4.742c.012.14.012.281.012.422 0 4.336-3.3 9.332-9.332 9.332A9.226 9.226 0 010 13.023c.262.032.52.043.79.043a6.58 6.58 0 004.073-1.402 3.282 3.282 0 01-3.066-2.273 3.486 3.486 0 001.48-.063A3.278 3.278 0 01.648 6.11v-.04c.438.242.946.395 1.485.414a3.267 3.267 0 01-1.465-2.73c0-.61.164-1.168.45-1.656a9.315 9.315 0 006.76 3.43 3.676 3.676 0 01-.081-.75A3.277 3.277 0 0111.074 1.5a3.29 3.29 0 012.399 1.035 6.462 6.462 0 002.082-.793 3.289 3.289 0 01-1.442 1.809A6.63 6.63 0 0016 3.043a7.078 7.078 0 01-1.645 1.7zm0 0"/></svg>