<svg xmlns="http://www.w3.org/2000/svg" width="20" height="20"><path fill-rule="evenodd" fill="#8D8D8D" d="M17.071 12.928a9.95 9.95 0 00-3.8-2.383 5.78 5.78 0 002.51-4.765c0-3.187-2.593-5.781-6.681-5.781-2.288 0-4.881 2.594-4.881 5.781a5.78 5.78 0 002.51 4.765 9.943 9.943 0 00-3.8 2.383A9.932 9.932 0 000 19.999h1.562c0-4.652 3.785-8.437 7.538-8.437 5.552 0 9.337 3.785 9.337 8.437h.663c0-2.672-.14-5.182-2.029-7.071zM5.781 5.78c0-2.326 1.893-4.218 3.319-4.218 3.226 0 5.119 1.892 5.119 4.218S12.326 9.999 9.1 9.999c-1.426 0-3.319-1.893-3.319-4.219z"/></svg>