<svg xmlns="http://www.w3.org/2000/svg" width="20" height="20"><path fill-rule="evenodd" fill="#29282D" d="M17.071 12.928a9.953 9.953 0 00-3.8-2.384 5.777 5.777 0 002.51-4.764c0-3.188-2.593-5.781-6.681-5.781-2.288 0-4.881 2.593-4.881 5.781 0 1.975.995 3.721 2.51 4.764a9.946 9.946 0 00-3.8 2.384A9.933 9.933 0 000 19.998h1.562c0-4.652 3.785-8.436 7.538-8.436 5.552 0 9.337 3.784 9.337 8.436h.663c0-2.67-.14-5.181-2.029-7.07zM5.781 5.78c0-2.327 1.893-4.219 3.319-4.219 3.226 0 5.119 1.892 5.119 4.219 0 2.326-1.893 4.219-5.119 4.219-1.426 0-3.319-1.893-3.319-4.219z"/></svg>